{
  "accessors": [
    {
      "bufferView": 2,
      "componentType": 5126,
      "count": 65532,
      "max": [
        147.45700073242188,
        43.82210159301758,
        202.30799865722656
      ],
      "min": [
        -141.11300659179688,
        -61.09669876098633,
        -214.5500030517578
      ],
      "type": "VEC3"
    },
    {
      "bufferView": 2,
      "byteOffset": 786384,
      "componentType": 5126,
      "count": 65532,
      "max": [
        0.9999215602874756,
        0.9999985694885254,
        0.9999966621398926
      ],
      "min": [
        -0.9999998211860657,
        -0.9999794960021973,
        -0.9996721148490906
      ],
      "type": "VEC3"
    },
    {
      "bufferView": 1,
      "componentType": 5126,
      "count": 65532,
      "max": [
        0.9809430241584778,
        0.9985889792442322
      ],
      "min": [
        0.0011490000179037452,
        0.0010319999419152737
      ],
      "type": "VEC2"
    },
    {
      "bufferView": 0,
      "componentType": 5125,
      "count": 338655,
      "type": "SCALAR"
    },
    {
      "bufferView": 2,
      "byteOffset": 1572768,
      "componentType": 5126,
      "count": 65532,
      "max": [
        146.97500610351563,
        44.2578010559082,
        202.30799865722656
      ],
      "min": [
        -143.322998046875,
        -70.99629974365234,
        -246.22500610351563
      ],
      "type": "VEC3"
    },
    {
      "bufferView": 2,
      "byteOffset": 2359152,
      "componentType": 5126,
      "count": 65532,
      "max": [
        0.999925434589386,
        0.9999746680259705,
        0.9997050762176514
      ],
      "min": [
        -0.9999935030937195,
        -0.9999919533729553,
        -0.9999633431434631
      ],
      "type": "VEC3"
    },
    {
      "bufferView": 1,
      "byteOffset": 524256,
      "componentType": 5126,
      "count": 65532,
      "max": [
        0.9982839822769165,
        0.9989110231399536
      ],
      "min": [
        0.0010319999419152737,
        0.0002500000118743628
      ],
      "type": "VEC2"
    },
    {
      "bufferView": 0,
      "byteOffset": 1354620,
      "componentType": 5125,
      "count": 278916,
      "type": "SCALAR"
    },
    {
      "bufferView": 2,
      "byteOffset": 3145536,
      "componentType": 5126,
      "count": 15452,
      "max": [
        139.72300720214844,
        43.8203010559082,
        186.14999389648438
      ],
      "min": [
        -71.09220123291016,
        -63.49689865112305,
        -234.5240020751953
      ],
      "type": "VEC3"
    },
    {
      "bufferView": 2,
      "byteOffset": 3330960,
      "componentType": 5126,
      "count": 15452,
      "max": [
        0.9968900680541992,
        0.999994158744812,
        0.9994058012962341
      ],
      "min": [
        -0.9998757839202881,
        -0.9994553327560425,
        -0.9968906044960022
      ],
      "type": "VEC3"
    },
    {
      "bufferView": 1,
      "byteOffset": 1048512,
      "componentType": 5126,
      "count": 15452,
      "max": [
        0.9824489951133728,
        0.9989449977874756
      ],
      "min": [
        0.0003319999959785491,
        0.00024500000290572643
      ],
      "type": "VEC2"
    },
    {
      "bufferView": 0,
      "byteOffset": 2470284,
      "componentType": 5125,
      "count": 43275,
      "type": "SCALAR"
    },
    {
      "bufferView": 2,
      "byteOffset": 3516384,
      "componentType": 5126,
      "count": 3,
      "max": [
        129.48399353027344,
        16.947900772094727,
        -46.29209899902344
      ],
      "min": [
        128.6300048828125,
        16.598800659179688,
        -47.2947998046875
      ],
      "type": "VEC3"
    },
    {
      "bufferView": 2,
      "byteOffset": 3516420,
      "componentType": 5126,
      "count": 3,
      "max": [
        -0.2820199131965637,
        0.9470686316490173,
        0.1533813625574112
      ],
      "min": [
        -0.2820199131965637,
        0.9470686316490173,
        0.1533813625574112
      ],
      "type": "VEC3"
    },
    {
      "bufferView": 1,
      "byteOffset": 1172128,
      "componentType": 5126,
      "count": 3,
      "max": [
        0.5,
        0.5
      ],
      "min": [
        0.5,
        0.5
      ],
      "type": "VEC2"
    },
    {
      "bufferView": 0,
      "byteOffset": 2643384,
      "componentType": 5125,
      "count": 3,
      "type": "SCALAR"
    },
    {
      "bufferView": 2,
      "byteOffset": 3516456,
      "componentType": 5126,
      "count": 7,
      "max": [
        32.13629913330078,
        -11.977800369262695,
        182.5399932861328
      ],
      "min": [
        28.631900787353516,
        -12.819199562072754,
        182.28399658203125
      ],
      "type": "VEC3"
    },
    {
      "bufferView": 2,
      "byteOffset": 3516540,
      "componentType": 5126,
      "count": 7,
      "max": [
        0.2002466320991516,
        0.8880012631416321,
        0.8042284250259399
      ],
      "min": [
        -0.22387811541557312,
        -0.9677030444145203,
        -0.11588575690984726
      ],
      "type": "VEC3"
    },
    {
      "bufferView": 1,
      "byteOffset": 1172152,
      "componentType": 5126,
      "count": 7,
      "max": [
        0.5,
        0.5
      ],
      "min": [
        0.5,
        0.5
      ],
      "type": "VEC2"
    },
    {
      "bufferView": 0,
      "byteOffset": 2643396,
      "componentType": 5125,
      "count": 9,
      "type": "SCALAR"
    },
    {
      "bufferView": 2,
      "byteOffset": 3516624,
      "componentType": 5126,
      "count": 24,
      "max": [
        114.95099639892578,
        7.330820083618164,
        100.28900146484375
      ],
      "min": [
        112.48899841308594,
        6.7308502197265625,
        96.34359741210938
      ],
      "type": "VEC3"
    },
    {
      "bufferView": 2,
      "byteOffset": 3516912,
      "componentType": 5126,
      "count": 24,
      "max": [
        0.9161174297332764,
        0.9999362230300903,
        0.3777869641780853
      ],
      "min": [
        -0.5420755743980408,
        -0.9954918026924133,
        -0.2560426592826843
      ],
      "type": "VEC3"
    },
    {
      "bufferView": 1,
      "byteOffset": 1172208,
      "componentType": 5126,
      "count": 24,
      "max": [
        0.5,
        0.5
      ],
      "min": [
        0.5,
        0.5
      ],
      "type": "VEC2"
    },
    {
      "bufferView": 0,
      "byteOffset": 2643432,
      "componentType": 5125,
      "count": 36,
      "type": "SCALAR"
    },
    {
      "bufferView": 2,
      "byteOffset": 3517200,
      "componentType": 5126,
      "count": 5,
      "max": [
        13.65060043334961,
        -27.935300827026367,
        -158.78900146484375
      ],
      "min": [
        12.074700355529785,
        -28.98310089111328,
        -160.1300048828125
      ],
      "type": "VEC3"
    },
    {
      "bufferView": 2,
      "byteOffset": 3517260,
      "componentType": 5126,
      "count": 5,
      "max": [
        0.2776724696159363,
        -0.572049081325531,
        0.8202022910118103
      ],
      "min": [
        -0.005298845004290342,
        -0.8066017031669617,
        0.5218156576156616
      ],
      "type": "VEC3"
    },
    {
      "bufferView": 1,
      "byteOffset": 1172400,
      "componentType": 5126,
      "count": 5,
      "max": [
        0.5,
        0.5
      ],
      "min": [
        0.5,
        0.5
      ],
      "type": "VEC2"
    },
    {
      "bufferView": 0,
      "byteOffset": 2643576,
      "componentType": 5125,
      "count": 9,
      "type": "SCALAR"
    },
    {
      "bufferView": 2,
      "byteOffset": 3517320,
      "componentType": 5126,
      "count": 3,
      "max": [
        27.0314998626709,
        -9.170109748840332,
        -149.06700134277344
      ],
      "min": [
        26.843399047851563,
        -9.723440170288086,
        -149.41400146484375
      ],
      "type": "VEC3"
    },
    {
      "bufferView": 2,
      "byteOffset": 3517356,
      "componentType": 5126,
      "count": 3,
      "max": [
        -0.9222769141197205,
        0.07583509385585785,
        0.3790176808834076
      ],
      "min": [
        -0.9222769141197205,
        0.07583509385585785,
        0.3790176808834076
      ],
      "type": "VEC3"
    },
    {
      "bufferView": 1,
      "byteOffset": 1172440,
      "componentType": 5126,
      "count": 3,
      "max": [
        0.5,
        0.5
      ],
      "min": [
        0.5,
        0.5
      ],
      "type": "VEC2"
    },
    {
      "bufferView": 0,
      "byteOffset": 2643612,
      "componentType": 5125,
      "count": 3,
      "type": "SCALAR"
    },
    {
      "bufferView": 2,
      "byteOffset": 3517392,
      "componentType": 5126,
      "count": 172,
      "max": [
        142.71499633789063,
        31.668899536132813,
        176.47999572753906
      ],
      "min": [
        -141.8300018310547,
        -29.648000717163086,
        -159.30999755859375
      ],
      "type": "VEC3"
    },
    {
      "bufferView": 2,
      "byteOffset": 3519456,
      "componentType": 5126,
      "count": 172,
      "max": [
        0.9470320343971252,
        0.976186215877533,
        0.941672682762146
      ],
      "min": [
        -0.9441050291061401,
        -0.9527888894081116,
        -0.9567365050315857
      ],
      "type": "VEC3"
    },
    {
      "bufferView": 1,
      "byteOffset": 1172464,
      "componentType": 5126,
      "count": 172,
      "max": [
        0.5,
        0.5
      ],
      "min": [
        0.5,
        0.5
      ],
      "type": "VEC2"
    },
    {
      "bufferView": 0,
      "byteOffset": 2643624,
      "componentType": 5125,
      "count": 234,
      "type": "SCALAR"
    },
    {
      "bufferView": 2,
      "byteOffset": 3521520,
      "componentType": 5126,
      "count": 4,
      "max": [
        103.62699890136719,
        3.3090500831604004,
        121.16000366210938
      ],
      "min": [
        102.28700256347656,
        2.739269971847534,
        120.38999938964844
      ],
      "type": "VEC3"
    },
    {
      "bufferView": 2,
      "byteOffset": 3521568,
      "componentType": 5126,
      "count": 4,
      "max": [
        0.3702024519443512,
        0.9101115465164185,
        0.2824687957763672
      ],
      "min": [
        0.36931750178337097,
        0.8853338360786438,
        0.18646292388439178
      ],
      "type": "VEC3"
    },
    {
      "bufferView": 1,
      "byteOffset": 1173840,
      "componentType": 5126,
      "count": 4,
      "max": [
        0.5,
        0.5
      ],
      "min": [
        0.5,
        0.5
      ],
      "type": "VEC2"
    },
    {
      "bufferView": 0,
      "byteOffset": 2644560,
      "componentType": 5125,
      "count": 6,
      "type": "SCALAR"
    },
    {
      "bufferView": 2,
      "byteOffset": 3521616,
      "componentType": 5126,
      "count": 8,
      "max": [
        59.67660140991211,
        6.557000160217285,
        162.08900451660156
      ],
      "min": [
        58.161598205566406,
        5.7299299240112305,
        159.6699981689453
      ],
      "type": "VEC3"
    },
    {
      "bufferView": 2,
      "byteOffset": 3521712,
      "componentType": 5126,
      "count": 8,
      "max": [
        -0.22042545676231384,
        0.9611421227455139,
        -0.11662843823432922
      ],
      "min": [
        -0.39426061511039734,
        0.8959282636642456,
        -0.20462416112422943
      ],
      "type": "VEC3"
    },
    {
      "bufferView": 1,
      "byteOffset": 1173872,
      "componentType": 5126,
      "count": 8,
      "max": [
        0.5,
        0.5
      ],
      "min": [
        0.5,
        0.5
      ],
      "type": "VEC2"
    },
    {
      "bufferView": 0,
      "byteOffset": 2644584,
      "componentType": 5125,
      "count": 18,
      "type": "SCALAR"
    },
    {
      "bufferView": 2,
      "byteOffset": 3521808,
      "componentType": 5126,
      "count": 6,
      "max": [
        125.76300048828125,
        13.959500312805176,
        53.629398345947266
      ],
      "min": [
        125.19000244140625,
        13.260299682617188,
        53.03239822387695
      ],
      "type": "VEC3"
    },
    {
      "bufferView": 2,
      "byteOffset": 3521880,
      "componentType": 5126,
      "count": 6,
      "max": [
        0.7477103471755981,
        0.2248428463935852,
        0.624799907207489
      ],
      "min": [
        -0.723499059677124,
        -0.17897458374500275,
        -0.6667212843894958
      ],
      "type": "VEC3"
    },
    {
      "bufferView": 1,
      "byteOffset": 1173936,
      "componentType": 5126,
      "count": 6,
      "max": [
        0.5,
        0.5
      ],
      "min": [
        0.5,
        0.5
      ],
      "type": "VEC2"
    },
    {
      "bufferView": 0,
      "byteOffset": 2644656,
      "componentType": 5125,
      "count": 6,
      "type": "SCALAR"
    },
    {
      "bufferView": 2,
      "byteOffset": 3521952,
      "componentType": 5126,
      "count": 3,
      "max": [
        139.61500549316406,
        10.75409984588623,
        14.308799743652344
      ],
      "min": [
        139.56399536132813,
        10.344799995422363,
        14.102100372314453
      ],
      "type": "VEC3"
    },
    {
      "bufferView": 2,
      "byteOffset": 3521988,
      "componentType": 5126,
      "count": 3,
      "max": [
        0.9810180068016052,
        -0.1033414825797081,
        -0.16408579051494598
      ],
      "min": [
        0.9810180068016052,
        -0.1033414825797081,
        -0.16408579051494598
      ],
      "type": "VEC3"
    },
    {
      "bufferView": 1,
      "byteOffset": 1173984,
      "componentType": 5126,
      "count": 3,
      "max": [
        0.5,
        0.5
      ],
      "min": [
        0.5,
        0.5
      ],
      "type": "VEC2"
    },
    {
      "bufferView": 0,
      "byteOffset": 2644680,
      "componentType": 5125,
      "count": 3,
      "type": "SCALAR"
    }
  ],
  "asset": {
    "extras": {
      "author": "Auckland Museum (https://sketchfab.com/aucklandmuseum)",
      "license": "CC-BY-4.0 (http://creativecommons.org/licenses/by/4.0/)",
      "source": "https://sketchfab.com/3d-models/hawksbill-sea-turtle-b7294b6b1ad64cc6b624f1185be8523e",
      "title": "Hawksbill Sea Turtle"
    },
    "generator": "Sketchfab-12.67.0",
    "version": "2.0"
  },
  "bufferViews": [
    {
      "buffer": 0,
      "byteLength": 2644692,
      "name": "floatBufferViews",
      "target": 34963
    },
    {
      "buffer": 0,
      "byteLength": 1174008,
      "byteOffset": 2644692,
      "byteStride": 8,
      "name": "floatBufferViews",
      "target": 34962
    },
    {
      "buffer": 0,
      "byteLength": 3522024,
      "byteOffset": 3818700,
      "byteStride": 12,
      "name": "floatBufferViews",
      "target": 34962
    }
  ],
  "buffers": [
    {
      "byteLength": 7340724,
      "uri": "scene.bin"
    }
  ],
  "images": [
    {
      "uri": "textures/material_0_baseColor.jpeg"
    }
  ],
  "materials": [
    {
      "doubleSided": true,
      "name": "material_0",
      "pbrMetallicRoughness": {
        "baseColorTexture": {
          "index": 0
        },
        "metallicFactor": 0.0,
        "roughnessFactor": 0.6
      }
    },
    {
      "doubleSided": true,
      "name": "material_1",
      "pbrMetallicRoughness": {
        "baseColorFactor": [
          0.43137299999999995,
          0.082353,
          0.03921600000000001,
          1.0
        ],
        "metallicFactor": 0.0,
        "roughnessFactor": 0.6
      }
    },
    {
      "alphaMode": "BLEND",
      "doubleSided": true,
      "name": "material_10",
      "pbrMetallicRoughness": {
        "baseColorFactor": [
          0.0,
          0.0,
          0.0,
          0.85098
        ],
        "metallicFactor": 0.0,
        "roughnessFactor": 0.6
      }
    },
    {
      "alphaMode": "BLEND",
      "doubleSided": true,
      "name": "material_2",
      "pbrMetallicRoughness": {
        "baseColorFactor": [
          0.627451,
          0.596078,
          0.466667,
          0.866667
        ],
        "metallicFactor": 0.0,
        "roughnessFactor": 0.6
      }
    },
    {
      "alphaMode": "BLEND",
      "doubleSided": true,
      "name": "material_3",
      "pbrMetallicRoughness": {
        "baseColorFactor": [
          0.752941,
          0.815686,
          0.72549,
          0.862745
        ],
        "metallicFactor": 0.0,
        "roughnessFactor": 0.6
      }
    },
    {
      "alphaMode": "BLEND",
      "doubleSided": true,
      "name": "material_4",
      "pbrMetallicRoughness": {
        "baseColorFactor": [
          0.376471,
          0.92549,
          0.72549,
          0.862745
        ],
        "metallicFactor": 0.0,
        "roughnessFactor": 0.6
      }
    },
    {
      "alphaMode": "BLEND",
      "doubleSided": true,
      "name": "material_5",
      "pbrMetallicRoughness": {
        "baseColorFactor": [
          0.627451,
          0.470588,
          0.733333,
          0.945098
        ],
        "metallicFactor": 0.0,
        "roughnessFactor": 0.6
      }
    },
    {
      "alphaMode": "BLEND",
      "doubleSided": true,
      "name": "material_6",
      "pbrMetallicRoughness": {
        "baseColorFactor": [
          0.0,
          0.709804,
          0.729412,
          0.862745
        ],
        "metallicFactor": 0.0,
        "roughnessFactor": 0.6
      }
    },
    {
      "alphaMode": "BLEND",
      "doubleSided": true,
      "name": "material_7",
      "pbrMetallicRoughness": {
        "baseColorFactor": [
          0.0,
          0.164706,
          0.729412,
          0.862745
        ],
        "metallicFactor": 0.0,
        "roughnessFactor": 0.6
      }
    },
    {
      "doubleSided": true,
      "name": "material_8",
      "pbrMetallicRoughness": {
        "baseColorTexture": {
          "index": 0
        },
        "metallicFactor": 0.0,
        "roughnessFactor": 0.6
      }
    },
    {
      "alphaMode": "BLEND",
      "doubleSided": true,
      "name": "material_9",
      "pbrMetallicRoughness": {
        "baseColorFactor": [
          0.25098,
          0.968627,
          0.988235,
          0.858824
        ],
        "metallicFactor": 0.0,
        "roughnessFactor": 0.6
      }
    }
  ],
  "meshes": [
    {
      "name": "Object_0",
      "primitives": [
        {
          "attributes": {
            "NORMAL": 1,
            "POSITION": 0,
            "TEXCOORD_0": 2
          },
          "indices": 3,
          "material": 0,
          "mode": 4
        }
      ]
    },
    {
      "name": "Object_1",
      "primitives": [
        {
          "attributes": {
            "NORMAL": 5,
            "POSITION": 4,
            "TEXCOORD_0": 6
          },
          "indices": 7,
          "material": 0,
          "mode": 4
        }
      ]
    },
    {
      "name": "Object_2",
      "primitives": [
        {
          "attributes": {
            "NORMAL": 9,
            "POSITION": 8,
            "TEXCOORD_0": 10
          },
          "indices": 11,
          "material": 0,
          "mode": 4
        }
      ]
    },
    {
      "name": "Object_3",
      "primitives": [
        {
          "attributes": {
            "NORMAL": 13,
            "POSITION": 12,
            "TEXCOORD_0": 14
          },
          "indices": 15,
          "material": 1,
          "mode": 4
        }
      ]
    },
    {
      "name": "Object_4",
      "primitives": [
        {
          "attributes": {
            "NORMAL": 17,
            "POSITION": 16,
            "TEXCOORD_0": 18
          },
          "indices": 19,
          "material": 2,
          "mode": 4
        }
      ]
    },
    {
      "name": "Object_5",
      "primitives": [
        {
          "attributes": {
            "NORMAL": 21,
            "POSITION": 20,
            "TEXCOORD_0": 22
          },
          "indices": 23,
          "material": 3,
          "mode": 4
        }
      ]
    },
    {
      "name": "Object_6",
      "primitives": [
        {
          "attributes": {
            "NORMAL": 25,
            "POSITION": 24,
            "TEXCOORD_0": 26
          },
          "indices": 27,
          "material": 4,
          "mode": 4
        }
      ]
    },
    {
      "name": "Object_7",
      "primitives": [
        {
          "attributes": {
            "NORMAL": 29,
            "POSITION": 28,
            "TEXCOORD_0": 30
          },
          "indices": 31,
          "material": 5,
          "mode": 4
        }
      ]
    },
    {
      "name": "Object_8",
      "primitives": [
        {
          "attributes": {
            "NORMAL": 33,
            "POSITION": 32,
            "TEXCOORD_0": 34
          },
          "indices": 35,
          "material": 6,
          "mode": 4
        }
      ]
    },
    {
      "name": "Object_9",
      "primitives": [
        {
          "attributes": {
            "NORMAL": 37,
            "POSITION": 36,
            "TEXCOORD_0": 38
          },
          "indices": 39,
          "material": 7,
          "mode": 4
        }
      ]
    },
    {
      "name": "Object_10",
      "primitives": [
        {
          "attributes": {
            "NORMAL": 41,
            "POSITION": 40,
            "TEXCOORD_0": 42
          },
          "indices": 43,
          "material": 8,
          "mode": 4
        }
      ]
    },
    {
      "name": "Object_11",
      "primitives": [
        {
          "attributes": {
            "NORMAL": 45,
            "POSITION": 44,
            "TEXCOORD_0": 46
          },
          "indices": 47,
          "material": 9,
          "mode": 4
        }
      ]
    },
    {
      "name": "Object_12",
      "primitives": [
        {
          "attributes": {
            "NORMAL": 49,
            "POSITION": 48,
            "TEXCOORD_0": 50
          },
          "indices": 51,
          "material": 10,
          "mode": 4
        }
      ]
    }
  ],
  "nodes": [
    {
      "children": [
        1
      ],
      "matrix": [
        1.0,
        0.0,
        0.0,
        0.0,
        0.0,
        -0.9983842968940735,
        0.05682209879159905,
        0.0,
        0.0,
        -0.05682209879159905,
        -0.9983842968940735,
        0.0,
        0.0,
        -36.636314392089844,
        -7.871984481811531,
        1.0
      ],
      "name": "Sketchfab_model"
    },
    {
      "children": [
        2,
        3,
        4,
        5,
        6,
        7,
        8,
        9,
        10,
        11,
        12,
        13,
        14
      ],
      "name": "Turtle_fixed.obj.cleaner.gles"
    },
    {
      "mesh": 0,
      "name": "Object_2"
    },
    {
      "mesh": 1,
      "name": "Object_3"
    },
    {
      "mesh": 2,
      "name": "Object_4"
    },
    {
      "mesh": 3,
      "name": "Object_5"
    },
    {
      "mesh": 4,
      "name": "Object_6"
    },
    {
      "mesh": 5,
      "name": "Object_7"
    },
    {
      "mesh": 6,
      "name": "Object_8"
    },
    {
      "mesh": 7,
      "name": "Object_9"
    },
    {
      "mesh": 8,
      "name": "Object_10"
    },
    {
      "mesh": 9,
      "name": "Object_11"
    },
    {
      "mesh": 10,
      "name": "Object_12"
    },
    {
      "mesh": 11,
      "name": "Object_13"
    },
    {
      "mesh": 12,
      "name": "Object_14"
    }
  ],
  "samplers": [
    {
      "magFilter": 9729,
      "minFilter": 9987,
      "wrapS": 10497,
      "wrapT": 10497
    }
  ],
  "scene": 0,
  "scenes": [
    {
      "name": "Sketchfab_Scene",
      "nodes": [
        0
      ]
    }
  ],
  "textures": [
    {
      "sampler": 0,
      "source": 0
    }
  ]
}
